<mxfile host="app.diagrams.net" modified="2024-05-20T18:03:41.257Z" agent="Mozilla/5.0 (Windows NT 10.0; Win64; x64) AppleWebKit/537.36 (KHTML, like Gecko) Chrome/124.0.0.0 Safari/537.36" etag="_Wj8zFD-2UAISeAHrXNc" version="24.4.4" type="device">
  <diagram name="PÃ¡gina-1" id="siJraIiXp4xMv06oVs8Q">
    <mxGraphModel dx="1720" dy="696" grid="1" gridSize="10" guides="1" tooltips="1" connect="1" arrows="1" fold="1" page="1" pageScale="1" pageWidth="1169" pageHeight="1654" math="0" shadow="0">
      <root>
        <mxCell id="0" />
        <mxCell id="1" parent="0" />
        <mxCell id="HezW99P1dnAXzv0C9Q0m-8" value="Sistema de Pagamentos" style="swimlane;whiteSpace=wrap;html=1;" parent="1" vertex="1">
          <mxGeometry x="210" y="210" width="550" height="670" as="geometry" />
        </mxCell>
        <mxCell id="HezW99P1dnAXzv0C9Q0m-1" value="Cliente&lt;div&gt;&lt;br/&gt;&lt;/div&gt;" style="shape=umlActor;verticalLabelPosition=bottom;verticalAlign=top;html=1;outlineConnect=0;" parent="HezW99P1dnAXzv0C9Q0m-8" vertex="1">
          <mxGeometry x="60" y="100" width="80" height="180" as="geometry" />
        </mxCell>
        <mxCell id="HezW99P1dnAXzv0C9Q0m-14" value="&lt;font style=&quot;font-size: 18px;&quot;&gt;Introduzir&lt;br&gt;notas/moedas&lt;/font&gt;" style="ellipse;whiteSpace=wrap;html=1;verticalAlign=top;" parent="HezW99P1dnAXzv0C9Q0m-8" vertex="1">
          <mxGeometry x="280" y="145" width="180" height="90" as="geometry" />
        </mxCell>
        <mxCell id="HezW99P1dnAXzv0C9Q0m-19" value="Sistema" style="shape=umlActor;verticalLabelPosition=bottom;verticalAlign=top;html=1;outlineConnect=0;" parent="HezW99P1dnAXzv0C9Q0m-8" vertex="1">
          <mxGeometry x="60" y="420" width="80" height="180" as="geometry" />
        </mxCell>
        <mxCell id="HezW99P1dnAXzv0C9Q0m-20" value="&lt;font style=&quot;font-size: 18px;&quot;&gt;Gerar &lt;br&gt;pagamentos&lt;/font&gt;" style="ellipse;whiteSpace=wrap;html=1;verticalAlign=top;" parent="HezW99P1dnAXzv0C9Q0m-8" vertex="1">
          <mxGeometry x="280" y="410" width="180" height="80" as="geometry" />
        </mxCell>
        <mxCell id="HezW99P1dnAXzv0C9Q0m-22" value="&lt;font style=&quot;font-size: 18px;&quot;&gt;Verifica valor&lt;br&gt;introduzido&lt;/font&gt;" style="ellipse;whiteSpace=wrap;html=1;verticalAlign=top;" parent="HezW99P1dnAXzv0C9Q0m-8" vertex="1">
          <mxGeometry x="280" y="500" width="180" height="80" as="geometry" />
        </mxCell>
        <mxCell id="HezW99P1dnAXzv0C9Q0m-24" value="&lt;font style=&quot;font-size: 18px;&quot;&gt;Calcula troco&lt;br&gt;a devolver&lt;/font&gt;" style="ellipse;whiteSpace=wrap;html=1;verticalAlign=top;" parent="HezW99P1dnAXzv0C9Q0m-8" vertex="1">
          <mxGeometry x="280" y="590" width="180" height="80" as="geometry" />
        </mxCell>
        <mxCell id="aYg14r6iRsxDZvvJT6zB-1" value="" style="endArrow=none;html=1;rounded=0;entryX=0;entryY=0.5;entryDx=0;entryDy=0;" edge="1" parent="HezW99P1dnAXzv0C9Q0m-8" source="HezW99P1dnAXzv0C9Q0m-1" target="HezW99P1dnAXzv0C9Q0m-14">
          <mxGeometry width="50" height="50" relative="1" as="geometry">
            <mxPoint x="190" y="240" as="sourcePoint" />
            <mxPoint x="240" y="190" as="targetPoint" />
          </mxGeometry>
        </mxCell>
        <mxCell id="aYg14r6iRsxDZvvJT6zB-2" value="" style="endArrow=none;html=1;rounded=0;entryX=0;entryY=0.5;entryDx=0;entryDy=0;" edge="1" parent="HezW99P1dnAXzv0C9Q0m-8" target="HezW99P1dnAXzv0C9Q0m-20">
          <mxGeometry width="50" height="50" relative="1" as="geometry">
            <mxPoint x="140" y="539.4100000000001" as="sourcePoint" />
            <mxPoint x="280" y="539.4100000000001" as="targetPoint" />
            <Array as="points">
              <mxPoint x="210" y="539" />
              <mxPoint x="210" y="450" />
            </Array>
          </mxGeometry>
        </mxCell>
        <mxCell id="aYg14r6iRsxDZvvJT6zB-4" value="" style="endArrow=none;html=1;rounded=0;entryX=0;entryY=0.5;entryDx=0;entryDy=0;" edge="1" parent="HezW99P1dnAXzv0C9Q0m-8">
          <mxGeometry width="50" height="50" relative="1" as="geometry">
            <mxPoint x="140" y="539.4100000000001" as="sourcePoint" />
            <mxPoint x="280" y="539.4100000000001" as="targetPoint" />
          </mxGeometry>
        </mxCell>
        <mxCell id="aYg14r6iRsxDZvvJT6zB-3" value="" style="endArrow=none;html=1;rounded=0;entryX=0;entryY=0.5;entryDx=0;entryDy=0;" edge="1" parent="HezW99P1dnAXzv0C9Q0m-8" target="HezW99P1dnAXzv0C9Q0m-24">
          <mxGeometry width="50" height="50" relative="1" as="geometry">
            <mxPoint x="140" y="539.4100000000001" as="sourcePoint" />
            <mxPoint x="280" y="539.4100000000001" as="targetPoint" />
            <Array as="points">
              <mxPoint x="210" y="539" />
              <mxPoint x="210" y="630" />
            </Array>
          </mxGeometry>
        </mxCell>
      </root>
    </mxGraphModel>
  </diagram>
</mxfile>
